#!OML:ASF F:\VICON\USERDATA\INSTALL\rory3\rory3.ASF
:FULLY-SPECIFIED
:DEGREES
45
root 0.15701794266167465 17.844185304907136 10.044123955320716 0.28802013004468396 -0.6861861698900911 -2.0483374401219216
lfemur -12.310913831904486 -1.234095435992647 -20.221283777277073
ltibia 42.537874183113466
lfoot -2.5522463939129114 -5.202494789901069
ltoes -7.22548481851236
rfemur -14.794410883400964 3.046744662428566 27.150932638856
rtibia 48.67610444634042
rfoot -2.246307965864999 -6.812677055182748
rtoes 3.3813803139619045
lowerback 12.436674955501005 0.5453030831278894 1.226345362186102
upperback -0.2478971517988427 1.0065938975916513 1.5338371204467836
thorax -7.109403053324152 0.47076843223975556 0.7858850119143781
lowerneck -17.693635791660643 -3.452279628379607 -2.046023445625619
upperneck 17.487507031245006 -4.532325886867812 1.9079394451571854
head 8.487927497710984 -2.0962062964295685 0.40608087112407043
lclavicle -7.507090794161257e-16 -6.472467268918577e-16
lhumerus -39.03752103551741 -2.585633889077131 86.96514206554767
lradius 61.54813607447423
lwrist 16.894954233879638
lhand -27.92446146636464 13.404732494766568
lfingers 7.125020000000057
lthumb -1.3127668733218867 43.35779423387156
rclavicle -7.507090794161257e-16 -6.472467268918577e-16
rhumerus -37.51924064174407 -6.492228882605384 -85.91738811544141
rradius 62.14330195847851
rwrist -4.22992577289715
rhand -17.98153317662407 29.751063750397766
rfingers 7.125020000000057
rthumb 8.287894595566387 -0.05998460250348679
46
root 0.1571965428567463 17.844298547232192 10.050208347046182 0.2889506191317677 -0.6852023342067884 -2.0474226720336453
lfemur -12.306157971639363 -1.2330647172709697 -20.21952603208001
ltibia 42.54454722692498
lfoot -2.548580181800413 -5.20043001004227
ltoes -7.22299224226283
rfemur -14.789626254434566 3.0478573613218662 27.152642308023736
rtibia 48.68315775668803
rfoot -2.2425297307262966 -6.811306654344749
rtoes 3.3842643861908543
lowerback 12.437424429246851 0.5456979337675633 1.2273776168619035
upperback -0.24767916076735422 1.0072271892204558 1.5341272607100847
thorax -7.108863240347837 0.4710462332173994 0.7865425642051155
lowerneck -17.6930773071283 -3.4519793994607393 -2.0458595281592418
upperneck 17.488896310730702 -4.531872749227557 1.9084401104647815
head 8.48831625780536 -2.0960162422533624 0.40624020320879883
lclavicle -7.450400015250277e-16 -6.42857143501722e-16
lhumerus -39.03376725967605 -2.5832887429619733 86.96707176623867
lradius 61.559286090467275
lwrist 16.89870820742148
lhand -27.923618308732372 13.40759519797508
lfingers 7.125020000000058
lthumb -1.3119526759232136 43.36065737778318
rclavicle -7.450400015250277e-16 -6.42857143501722e-16
rhumerus -37.515772736723626 -6.487819551613768 -85.91454254394999
rradius 62.154278725607654
rwrist -4.226754867656042
rhand -17.981076915808377 29.75341028721041
rfingers 7.125020000000058
rthumb 8.288334922484816 -0.05763885023836754
47
root 0.15721937694003463 17.844313025294106 10.050986238175373 0.2890695824134417 -0.6850765505483466 -2.0473057186859247
lfemur -12.305549933617021 -1.2329329396033801 -20.219301303880734
ltibia 42.545400377382734
lfoot -2.548111455589359 -5.200166027378372
ltoes -7.222673565714569
rfemur -14.789014538325976 3.0479996201765904 27.152860889689652
rtibia 48.684059524325356
rfoot -2.242046682341017 -6.811131448226633
rtoes 3.3846331156060656
lowerback 12.437520249668145 0.5457484155287347 1.2275095909016438
upperback -0.24765129055496662 1.0073081557266352 1.534164355221291
thorax -7.1087942251126846 0.47108175014759396 0.7866266324434906
lowerneck -17.693005904729652 -3.4519410151121876 -2.045838571266792
upperneck 17.489073930489035 -4.531814815457583 1.9085041206598914
head 8.488365960888666 -2.0959919437754855 0.40626057385896375
lclavicle -7.443152083819891e-16 -6.42295934077e-16
lhumerus -39.03328733841856 -2.5829889153963017 86.9673184789944
lradius 61.56071162303038
lwrist 16.899188153955034
lhand -27.92351051080084 13.407961195355243
lfingers 7.125020000000058
lthumb -1.311848580565384 43.361023431507355
rclavicle -7.443152083819891e-16 -6.42295934077e-16
rhumerus -37.51532936412797 -6.487255817452851 -85.9141787368645
rradius 62.155682108256606
rwrist -4.226349466562579
rhand -17.981018582739576 29.753710292577132
rfingers 7.125020000000058
rthumb 8.288391218400537 -0.05733894517625937
48
root 0.15712825483800003 17.844255248880735 10.047881971892775 0.2885948454093678 -0.6855785050701947 -2.0477724348115394
lfemur -12.307976381047085 -1.2334588139255664 -20.220198108260668
ltibia 42.5419957798747
lfoot -2.5499819628083547 -5.2012194813283905
ltoes -7.223945282059826
rfemur -14.79145566359294 3.0474319194411663 27.151988613775924
rtibia 48.68046091422911
rfoot -2.2439743438851796 -6.811830628901874
rtoes 3.383161657392842
lowerback 12.4371378669775 0.5455469621077998 1.2269829329332338
upperback -0.24776250992404936 1.006985049335881 1.534016325200012
thorax -7.109069638547074 0.47094001564937565 0.786291148224643
lowerneck -17.693290844421465 -3.452094192381495 -2.0459222022174215
upperneck 17.488365117897878 -4.532046006998412 1.9082486804280057
head 8.488167614873577 -2.096088909716813 0.4061792823773045
lclavicle -7.472075808893511e-16 -6.445355064660721e-16
lhumerus -39.03520252079053 -2.584185412653798 86.96633394264946
lradius 61.555022867233674
lwrist 16.897272870715966
lhand -27.923940691158524 13.40650063965005
lfingers 7.125020000000058
lthumb -1.3122639853660811 43.359562650954736
rclavicle -7.472075808893511e-16 -6.445355064660721e-16
rhumerus -37.51709869475492 -6.489505465099436 -85.91563055194054
rradius 62.150081744304316
rwrist -4.227967267432317
rhand -17.981251367729456 29.752513085783576
rfingers 7.125020000000058
rthumb 8.288166562910247 -0.058535751692424406
49
root 0.15706473772831928 17.84421497554745 10.04571812780284 0.28826392764425945 -0.6859283949400187 -2.0480977615838434
lfemur -12.309667748169977 -1.2338253772099375 -20.220823230167326
ltibia 42.539622588426
lfoot -2.551285809071059 -5.2019537965888265
ltoes -7.22483173819704
rfemur -14.793157261974276 3.0470362008495995 27.151380589557355
rtibia 48.67795248535096
rfoot -2.2453180298515263 -6.81231799623257
rtoes 3.382135970203531
lowerback 12.43687132524109 0.5454065380092842 1.2266158234044058
upperback -0.2478400359326347 1.0067598264360376 1.5339131401451498
thorax -7.109261616836962 0.4708412189198461 0.7860572972988092
lowerneck -17.69348946303597 -3.4522009653509276 -2.0459804975831477
upperneck 17.48787103659279 -4.532207160199757 1.9080706245572203
head 8.488029356807598 -2.096156500303433 0.4061226177499378
lclavicle -7.492237233804223e-16 -6.460966114219326e-16
lhumerus -39.03653750808848 -2.585019436955698 86.96564766674483
lradius 61.55105749200837
lwrist 16.895937813108105
lhand -27.92424055049398 13.405482552107618
lfingers 7.125020000000057
lthumb -1.3125535453268222 43.358544406681304
rclavicle -7.492237233804223e-16 -6.460966114219326e-16
rhumerus -37.5183320153762 -6.49107359306313 -85.91664254678439
rradius 62.14617798304917
rwrist -4.229094963490576
rhand -17.981413631652302 29.751678566896075
rfingers 7.125020000000057
rthumb 8.288009965695098 -0.05936999156460178
